<svg xmlns="http://www.w3.org/2000/svg" version="1.1" xmlns:xlink="http://www.w3.org/1999/xlink" xmlns:svgjs="http://svgjs.dev/svgjs" viewBox="0 0 800 800"><defs><linearGradient x1="50%" y1="0%" x2="50%" y2="100%" id="ffflurry-grad" gradientTransform="rotate(270)"><stop stop-color="#0F0842" stop-opacity="1" offset="0%"></stop><stop stop-color="hsl(257, 36%, 75%)" stop-opacity="1" offset="45%"></stop><stop stop-color="hsl(213, 66%, 87%)" stop-opacity="1" offset="100%"></stop></linearGradient></defs><rect width="100%" height="100%" fill="#0f0842"></rect><g fill="url(#ffflurry-grad)"><rect width="117" height="3" x="84.5" y="260.5" rx="1.5" transform="rotate(45, 143, 262)" opacity="0.46"></rect><rect width="200" height="3" x="277" y="124.5" rx="1.5" transform="rotate(45, 377, 126)" opacity="0.30"></rect><rect width="441" height="3" x="229.5" y="40.5" rx="1.5" transform="rotate(45, 450, 42)" opacity="0.47"></rect><rect width="121" height="3" x="562.5" y="590.5" rx="1.5" transform="rotate(45, 623, 592)" opacity="0.30"></rect><rect width="555" height="3" x="145.5" y="450.5" rx="1.5" transform="rotate(45, 423, 452)" opacity="0.58"></rect><rect width="79" height="3" x="314.5" y="32.5" rx="1.5" transform="rotate(45, 354, 34)" opacity="0.14"></rect><rect width="486" height="3" x="420" y="184.5" rx="1.5" transform="rotate(45, 663, 186)" opacity="0.39"></rect><rect width="561" height="3" x="-63.5" y="519.5" rx="1.5" transform="rotate(45, 217, 521)" opacity="0.91"></rect><rect width="221" height="3" x="-49.5" y="599.5" rx="1.5" transform="rotate(45, 61, 601)" opacity="0.18"></rect><rect width="55" height="3" x="597.5" y="521.5" rx="1.5" transform="rotate(45, 625, 523)" opacity="0.69"></rect><rect width="574" height="3" x="449" y="638.5" rx="1.5" transform="rotate(45, 736, 640)" opacity="0.82"></rect><rect width="152" height="3" x="464" y="564.5" rx="1.5" transform="rotate(45, 540, 566)" opacity="0.62"></rect><rect width="42" height="3" x="662" y="444.5" rx="1.5" transform="rotate(45, 683, 446)" opacity="0.90"></rect><rect width="79" height="3" x="280.5" y="294.5" rx="1.5" transform="rotate(45, 320, 296)" opacity="0.68"></rect><rect width="278" height="3" x="334" y="212.5" rx="1.5" transform="rotate(45, 473, 214)" opacity="0.62"></rect><rect width="290" height="3" x="621" y="69.5" rx="1.5" transform="rotate(45, 766, 71)" opacity="0.67"></rect><rect width="52" height="3" x="402" y="281.5" rx="1.5" transform="rotate(45, 428, 283)" opacity="0.20"></rect><rect width="350" height="3" x="240" y="161.5" rx="1.5" transform="rotate(45, 415, 163)" opacity="0.81"></rect><rect width="750" height="3" x="-283" y="364.5" rx="1.5" transform="rotate(45, 92, 366)" opacity="0.88"></rect><rect width="236" height="3" x="-74" y="246.5" rx="1.5" transform="rotate(45, 44, 248)" opacity="0.18"></rect><rect width="133" height="3" x="506.5" y="230.5" rx="1.5" transform="rotate(45, 573, 232)" opacity="0.90"></rect><rect width="143" height="3" x="165.5" y="293.5" rx="1.5" transform="rotate(45, 237, 295)" opacity="0.33"></rect><rect width="623" height="3" x="-221.5" y="466.5" rx="1.5" transform="rotate(45, 90, 468)" opacity="0.94"></rect><rect width="109" height="3" x="205.5" y="30.5" rx="1.5" transform="rotate(45, 260, 32)" opacity="0.09"></rect><rect width="349" height="3" x="589.5" y="238.5" rx="1.5" transform="rotate(45, 764, 240)" opacity="0.72"></rect><rect width="437" height="3" x="403.5" y="80.5" rx="1.5" transform="rotate(45, 622, 82)" opacity="0.98"></rect><rect width="370" height="3" x="90" y="726.5" rx="1.5" transform="rotate(45, 275, 728)" opacity="0.62"></rect><rect width="381" height="3" x="360.5" y="685.5" rx="1.5" transform="rotate(45, 551, 687)" opacity="0.44"></rect><rect width="292" height="3" x="533" y="263.5" rx="1.5" transform="rotate(45, 679, 265)" opacity="0.72"></rect><rect width="72" height="3" x="466" y="762.5" rx="1.5" transform="rotate(45, 502, 764)" opacity="0.51"></rect><rect width="355" height="3" x="148.5" y="100.5" rx="1.5" transform="rotate(45, 326, 102)" opacity="0.61"></rect><rect width="763" height="3" x="358.5" y="739.5" rx="1.5" transform="rotate(45, 740, 741)" opacity="0.72"></rect><rect width="525" height="3" x="359.5" y="750.5" rx="1.5" transform="rotate(45, 622, 752)" opacity="0.38"></rect><rect width="180" height="3" x="447" y="70.5" rx="1.5" transform="rotate(45, 537, 72)" opacity="0.56"></rect><rect width="466" height="3" x="-190" y="694.5" rx="1.5" transform="rotate(45, 43, 696)" opacity="0.96"></rect><rect width="383" height="3" x="374.5" y="513.5" rx="1.5" transform="rotate(45, 566, 515)" opacity="0.97"></rect><rect width="83" height="3" x="304.5" y="715.5" rx="1.5" transform="rotate(45, 346, 717)" opacity="0.10"></rect><rect width="185" height="3" x="653.5" y="555.5" rx="1.5" transform="rotate(45, 746, 557)" opacity="0.50"></rect><rect width="79" height="3" x="730.5" y="367.5" rx="1.5" transform="rotate(45, 770, 369)" opacity="0.74"></rect><rect width="464" height="3" x="-200" y="515.5" rx="1.5" transform="rotate(45, 32, 517)" opacity="0.87"></rect><rect width="553" height="3" x="-119.5" y="625.5" rx="1.5" transform="rotate(45, 157, 627)" opacity="0.64"></rect><rect width="106" height="3" x="86" y="35.5" rx="1.5" transform="rotate(45, 139, 37)" opacity="0.84"></rect><rect width="338" height="3" x="455" y="652.5" rx="1.5" transform="rotate(45, 624, 654)" opacity="0.92"></rect><rect width="181" height="3" x="566.5" y="343.5" rx="1.5" transform="rotate(45, 657, 345)" opacity="0.26"></rect><rect width="522" height="3" x="196" y="684.5" rx="1.5" transform="rotate(45, 457, 686)" opacity="0.56"></rect><rect width="200" height="3" x="397" y="481.5" rx="1.5" transform="rotate(45, 497, 483)" opacity="0.67"></rect><rect width="221" height="3" x="450.5" y="440.5" rx="1.5" transform="rotate(45, 561, 442)" opacity="0.93"></rect><rect width="202" height="3" x="-55" y="40.5" rx="1.5" transform="rotate(45, 46, 42)" opacity="0.81"></rect><rect width="511" height="3" x="129.5" y="349.5" rx="1.5" transform="rotate(45, 385, 351)" opacity="0.78"></rect><rect width="193" height="3" x="373.5" y="128.5" rx="1.5" transform="rotate(45, 470, 130)" opacity="0.98"></rect><rect width="51" height="3" x="465.5" y="318.5" rx="1.5" transform="rotate(45, 491, 320)" opacity="0.40"></rect><rect width="335" height="3" x="165.5" y="426.5" rx="1.5" transform="rotate(45, 333, 428)" opacity="0.53"></rect><rect width="62" height="3" x="551" y="156.5" rx="1.5" transform="rotate(45, 582, 158)" opacity="0.58"></rect><rect width="323" height="3" x="343.5" y="393.5" rx="1.5" transform="rotate(45, 505, 395)" opacity="0.63"></rect><rect width="379" height="3" x="487.5" y="32.5" rx="1.5" transform="rotate(45, 677, 34)" opacity="0.58"></rect><rect width="68" height="3" x="191" y="412.5" rx="1.5" transform="rotate(45, 225, 414)" opacity="0.98"></rect><rect width="158" height="3" x="261" y="530.5" rx="1.5" transform="rotate(45, 340, 532)" opacity="0.48"></rect><rect width="234" height="3" x="163" y="615.5" rx="1.5" transform="rotate(45, 280, 617)" opacity="0.37"></rect><rect width="420" height="3" x="246" y="543.5" rx="1.5" transform="rotate(45, 456, 545)" opacity="0.09"></rect><rect width="375" height="3" x="530.5" y="344.5" rx="1.5" transform="rotate(45, 718, 346)" opacity="0.94"></rect><rect width="427" height="3" x="189.5" y="755.5" rx="1.5" transform="rotate(45, 403, 757)" opacity="0.61"></rect><rect width="565" height="3" x="119.5" y="609.5" rx="1.5" transform="rotate(45, 402, 611)" opacity="0.87"></rect><rect width="98" height="3" x="457" y="618.5" rx="1.5" transform="rotate(45, 506, 620)" opacity="0.90"></rect><rect width="44" height="3" x="159" y="79.5" rx="1.5" transform="rotate(45, 181, 81)" opacity="0.10"></rect><rect width="163" height="3" x="522.5" y="376.5" rx="1.5" transform="rotate(45, 604, 378)" opacity="0.67"></rect><rect width="482" height="3" x="332" y="303.5" rx="1.5" transform="rotate(45, 573, 305)" opacity="0.84"></rect><rect width="502" height="3" x="508" y="472.5" rx="1.5" transform="rotate(45, 759, 474)" opacity="0.84"></rect><rect width="539" height="3" x="-75.5" y="740.5" rx="1.5" transform="rotate(45, 194, 742)" opacity="0.10"></rect><rect width="346" height="3" x="-88" y="758.5" rx="1.5" transform="rotate(45, 85, 760)" opacity="0.63"></rect><rect width="160" height="3" x="538" y="456.5" rx="1.5" transform="rotate(45, 618, 458)" opacity="0.22"></rect><rect width="293" height="3" x="101.5" y="101.5" rx="1.5" transform="rotate(45, 248, 103)" opacity="0.93"></rect><rect width="485" height="3" x="36.5" y="183.5" rx="1.5" transform="rotate(45, 279, 185)" opacity="0.52"></rect><rect width="750" height="3" x="-312" y="131.5" rx="1.5" transform="rotate(45, 63, 133)" opacity="0.10"></rect><rect width="456" height="3" x="135" y="214.5" rx="1.5" transform="rotate(45, 363, 216)" opacity="0.91"></rect><rect width="170" height="3" x="642" y="144.5" rx="1.5" transform="rotate(45, 727, 146)" opacity="0.18"></rect><rect width="405" height="3" x="-25.5" y="167.5" rx="1.5" transform="rotate(45, 177, 169)" opacity="0.53"></rect><rect width="140" height="3" x="604" y="545.5" rx="1.5" transform="rotate(45, 674, 547)" opacity="0.66"></rect></g></svg>