<?xml version="1.0" encoding="utf-8"?>
<!-- Generator: Adobe Illustrator 23.0.3, SVG Export Plug-In . SVG Version: 6.00 Build 0)  -->
<svg version="1.1" id="Слой_1" xmlns="http://www.w3.org/2000/svg" xmlns:xlink="http://www.w3.org/1999/xlink" x="0px" y="0px"
	 viewBox="0 0 283.5 283.5" style="enable-background:new 0 0 283.5 283.5;" xml:space="preserve">
<style type="text/css">
	.st0{fill:#FFFFFF;}
</style>
<g>
	<path class="st0" d="M45.5,205.5l9.4-24.7h5.7l9.4,24.7h-5.4l-2.3-5.9h-9.1l-2.3,5.9H45.5z M54,195.6h7.6l-3.8-9.9L54,195.6z"/>
	<path class="st0" d="M74.8,205.5v-24.7h10.4c3.7,0,6.5,1,8.4,2.9c1.9,1.9,2.8,5.1,2.8,9.6c0,4.2-0.9,7.3-2.8,9.3
		c-1.9,2-4.7,2.9-8.4,2.9H74.8z M80,201.5h4.4c1.5,0,2.7-0.2,3.7-0.7c1-0.4,1.7-1.3,2.2-2.5c0.5-1.2,0.7-2.9,0.7-5.1
		c0-2.2-0.2-3.9-0.7-5.1c-0.5-1.2-1.2-2-2.1-2.4s-2.2-0.7-3.8-0.7H80V201.5z"/>
	<path class="st0" d="M109,205.5l-9.4-24.7h5.4l6.8,18.9l6.9-18.9h5.4l-9.4,24.7H109z"/>
	<path class="st0" d="M128.6,205.5v-24.7h5.2v24.7H128.6z"/>
	<path class="st0" d="M148.5,205.9c-1.6,0-3.1-0.1-4.4-0.3s-2.5-0.6-3.5-1V200c1.1,0.5,2.3,0.8,3.6,1.1c1.3,0.3,2.6,0.4,3.8,0.4
		c1.8,0,3.1-0.2,3.9-0.5c0.8-0.3,1.3-1.1,1.3-2.3c0-0.7-0.2-1.3-0.5-1.8c-0.4-0.4-1-0.8-1.9-1.2c-0.9-0.3-2.1-0.7-3.7-1.2
		c-2.6-0.7-4.4-1.6-5.4-2.7c-1-1.1-1.6-2.6-1.6-4.4c0-2.3,0.8-4,2.5-5.3c1.7-1.2,4.1-1.8,7.2-1.8c1.5,0,2.9,0.1,4.1,0.3
		c1.3,0.2,2.3,0.4,3.1,0.7v4.6c-2.1-0.8-4.3-1.2-6.6-1.2c-1.6,0-2.9,0.2-3.8,0.5c-0.9,0.3-1.4,1.1-1.4,2.2c0,0.6,0.2,1.1,0.5,1.5
		c0.3,0.4,0.9,0.7,1.7,1c0.8,0.3,1.9,0.7,3.4,1c2,0.5,3.6,1.2,4.7,1.9c1.1,0.7,1.9,1.6,2.3,2.5c0.4,0.9,0.6,2,0.6,3.2
		c0,2.1-0.8,3.9-2.5,5.2C154.4,205.2,151.9,205.9,148.5,205.9z"/>
	<path class="st0" d="M175.2,205.9c-8,0-12-4.2-12-12.6c0-4.5,1-7.8,3-9.8c2-2,5-3,9-3c4,0,7,1,9,3c2,2,3,5.3,3,9.8
		C187.2,201.7,183.2,205.9,175.2,205.9z M175.2,201.5c2.3,0,4-0.7,5.1-2c1.1-1.3,1.6-3.4,1.6-6.2c0-3.1-0.5-5.3-1.6-6.5
		c-1.1-1.3-2.8-1.9-5.1-1.9c-2.3,0-4,0.6-5.1,1.9c-1.1,1.3-1.6,3.4-1.6,6.5c0,2.8,0.5,4.8,1.6,6.2
		C171.2,200.8,172.9,201.5,175.2,201.5z"/>
	<path class="st0" d="M192.7,205.5v-24.7h11.8c2.8,0,4.9,0.7,6.2,2.2c1.3,1.5,2,3.5,2,6c0,1.7-0.4,3.1-1.3,4.3
		c-0.9,1.2-2.1,2.1-3.6,2.6c0.4,0.3,0.7,0.7,1,1.1c0.2,0.4,0.5,0.9,0.7,1.5l3,6.9h-5.4l-2.9-6.6c-0.3-0.6-0.5-1-0.8-1.2
		c-0.3-0.2-0.8-0.3-1.5-0.3h-4.1v8.2H192.7z M197.9,193h5.3c1.4,0,2.4-0.3,3.2-0.9c0.8-0.6,1.1-1.6,1.1-3c0-1.4-0.3-2.4-1-3
		c-0.7-0.6-1.7-1-3-1h-5.6V193z"/>
	<path class="st0" d="M223.9,205.5v-9.1l-8.9-15.6h5.4l6.1,11.2l6.1-11.2h5.4l-8.9,15.6v9.1H223.9z"/>
	<polygon class="st0" points="62.6,169.1 45.5,169.1 45.5,95.8 62.6,112.9 	"/>
	<rect x="45.5" y="78.7" class="st0" width="17.1" height="17.1"/>
	<rect x="161.9" y="96" class="st0" width="17.1" height="73.3"/>
	<polygon class="st0" points="132.6,95.8 101,95.8 91.9,104.4 91.9,95.8 74.8,95.8 74.8,169.1 91.9,169.1 91.9,112.9 132.6,112.9 
		132.6,169.1 149.7,169.1 149.7,112.9 	"/>
	<polygon class="st0" points="238,96 219.7,96 185.1,126.5 185.1,138.7 219.7,169.2 238,169.2 198.1,132.6 	"/>
</g>
</svg>
